REM DIRINDEX 1\2,1\3,1\4,1\5
REM DIRNAME "folder01","folder02","folder03","folder04","folder05"
TITLE ""
FILE "1Q_t_1049-1058.mp3" MP3
  TRACK 01 AUDIO
    TITLE "3:cjc172_4107"
    INDEX 01 00:00:00
  TRACK 02 AUDIO
    TITLE "0:"
    INDEX 01 00:01:04
  TRACK 03 AUDIO
    TITLE "4:cjc172_4108"
    INDEX 01 00:01:14
  TRACK 04 AUDIO
    TITLE "0:"
    INDEX 01 00:03:28
  TRACK 05 AUDIO
    TITLE "5:cjc172_4109"
    INDEX 01 00:03:36
  TRACK 06 AUDIO
    TITLE "0:"
    INDEX 01 00:07:32
  TRACK 07 AUDIO
    TITLE "3:cjc172_4110"
    INDEX 01 00:08:06
  TRACK 08 AUDIO
    TITLE "0:"
    INDEX 01 00:09:25
  TRACK 09 AUDIO
    TITLE "4:cjc172_4111"
    INDEX 01 00:09:33
  TRACK 10 AUDIO
    TITLE "0:"
    INDEX 01 00:12:33
  TRACK 11 AUDIO
    TITLE "5:cjc172_4112"
    INDEX 01 00:12:41
  TRACK 12 AUDIO
    TITLE "0:"
    INDEX 01 00:17:73
  TRACK 13 AUDIO
    TITLE "3:cjc172_4113"
    INDEX 01 00:18:43
  TRACK 14 AUDIO
    TITLE "0:"
    INDEX 01 00:19:53
  TRACK 15 AUDIO
    TITLE "4:cjc172_4114"
    INDEX 01 00:19:61
  TRACK 16 AUDIO
    TITLE "0:"
    INDEX 01 00:23:17
  TRACK 17 AUDIO
    TITLE "5:cjc172_4115"
    INDEX 01 00:23:23
  TRACK 18 AUDIO
    TITLE "0:"
    INDEX 01 00:30:31
  TRACK 19 AUDIO
    TITLE "3:cjc172_4116"
    INDEX 01 00:31:11
  TRACK 20 AUDIO
    TITLE "0:"
    INDEX 01 00:32:40
  TRACK 21 AUDIO
    TITLE "4:cjc172_4117"
    INDEX 01 00:32:53
  TRACK 22 AUDIO
    TITLE "0:"
    INDEX 01 00:35:24
  TRACK 23 AUDIO
    TITLE "5:cjc172_4118"
    INDEX 01 00:35:30
  TRACK 24 AUDIO
    TITLE "0:"
    INDEX 01 00:41:58
  TRACK 25 AUDIO
    TITLE "3:cjc172_4119"
    INDEX 01 00:42:26
  TRACK 26 AUDIO
    TITLE "0:"
    INDEX 01 00:43:41
  TRACK 27 AUDIO
    TITLE "4:cjc172_4120"
    INDEX 01 00:43:49
  TRACK 28 AUDIO
    TITLE "0:"
    INDEX 01 00:46:06
  TRACK 29 AUDIO
    TITLE "5:cjc172_4121"
    INDEX 01 00:46:10
  TRACK 30 AUDIO
    TITLE "0:"
    INDEX 01 00:50:24
  TRACK 31 AUDIO
    TITLE "3:cjc172_4122"
    INDEX 01 00:50:71
  TRACK 32 AUDIO
    TITLE "0:"
    INDEX 01 00:51:74
  TRACK 33 AUDIO
    TITLE "4:cjc172_4123"
    INDEX 01 00:52:09
  TRACK 34 AUDIO
    TITLE "0:"
    INDEX 01 00:53:14
  TRACK 35 AUDIO
    TITLE "5:cjc172_4124"
    INDEX 01 00:53:22
  TRACK 36 AUDIO
    TITLE "0:"
    INDEX 01 00:59:31
  TRACK 37 AUDIO
    TITLE "3:cjc172_4125"
    INDEX 01 01:00:01
  TRACK 38 AUDIO
    TITLE "0:"
    INDEX 01 01:01:28
  TRACK 39 AUDIO
    TITLE "4:cjc172_4126"
    INDEX 01 01:01:35
  TRACK 40 AUDIO
    TITLE "0:"
    INDEX 01 01:04:01
  TRACK 41 AUDIO
    TITLE "5:cjc172_4127"
    INDEX 01 01:04:06
  TRACK 42 AUDIO
    TITLE "0:"
    INDEX 01 01:08:57
  TRACK 43 AUDIO
    TITLE "3:cjc172_4128"
    INDEX 01 01:09:27
  TRACK 44 AUDIO
    TITLE "0:"
    INDEX 01 01:10:52
  TRACK 45 AUDIO
    TITLE "4:cjc172_4129"
    INDEX 01 01:10:60
  TRACK 46 AUDIO
    TITLE "0:"
    INDEX 01 01:11:67
  TRACK 47 AUDIO
    TITLE "5:cjc172_4130"
    INDEX 01 01:11:75
  TRACK 48 AUDIO
    TITLE "0:"
    INDEX 01 01:16:60
  TRACK 49 AUDIO
    TITLE "3:cjc172_4131"
    INDEX 01 01:17:31
  TRACK 50 AUDIO
    TITLE "0:"
    INDEX 01 01:18:30
  TRACK 51 AUDIO
    TITLE "4:cjc172_4132"
    INDEX 01 01:18:38
  TRACK 52 AUDIO
    TITLE "0:"
    INDEX 01 01:19:43
  TRACK 53 AUDIO
    TITLE "5:cjc172_4133"
    INDEX 01 01:19:51
  TRACK 54 AUDIO
    TITLE "0:"
    INDEX 01 01:25:26
  TRACK 55 AUDIO
    TITLE "3:cjc172_4134"
    INDEX 01 01:25:73
  TRACK 56 AUDIO
    TITLE "0:"
    INDEX 01 01:27:11
  TRACK 57 AUDIO
    TITLE "4:cjc172_4135"
    INDEX 01 01:27:17
  TRACK 58 AUDIO
    TITLE "0:"
    INDEX 01 01:29:42
  TRACK 59 AUDIO
    TITLE "5:cjc172_4136"
    INDEX 01 01:29:47
  TRACK 60 AUDIO
    TITLE "0:"
    INDEX 01 01:35:56
